<svg version="1.1" xmlns="http://www.w3.org/2000/svg" width="200" height="200" viewBox="0 0 160 160"><g transform="scale(1,1) rotate(0,80,80)" fill-opacity="1">
	<g><circle cx="80" cy="80" r="80" fill="#FFFFFF" display="inline"/></g>
	<g>
		<g id="ringback" display="inline"><path fill="#FF0100" d="M80,0C35.817,0,0,35.817,0,80c0,44.184,35.817,80,80,80c44.184,0,80-35.816,80-80C160,35.817,124.184,0,80,0z M80,155.5c-41.697,0-75.5-33.804-75.5-75.5C4.5,38.303,38.303,4.5,80,4.5c41.696,0,75.5,33.803,75.5,75.5C155.5,121.696,121.696,155.5,80,155.5z"/></g>

		<g id="ringfore" display="none" transform="rotate(153,80,80)">
			<path fill="#FF0100" d="M39.5,16.2v-5.3c-5.7,3.4-11.1,7.6-16,12.5c-5,5-9.1,10.3-12.5,16h5.3c2.9-4.5,6.3-8.8,10.3-12.8S34.9,19.2,39.5,16.2z"/>
			<path fill="#FF0100" d="M15.6,40.4h-5.2c-2.8,5-5.1,10.3-6.7,15.8l3.2,5.5C8.7,54.1,11.6,47,15.6,40.4z"/>
			<path fill="#FF0100" d="M97.4,2C91.9,0.8,86.1,0.1,80,0C65.2,0.3,52.1,3.8,40.5,10.4v5.2C52,8.5,65.1,4.8,80,4.5c7.3,0.1,14.1,1.1,20.5,2.9L97.4,2z"/>
			<path fill="#FF0100" d="M129.3,22.8l2.3-3.9c-9.5-8.2-20.5-13.7-32.8-16.6l3.1,5.5C112.1,10.7,121.3,15.7,129.3,22.8z"/>
			<path fill="#FF0100" d="M132.3,19.5l-2.2,3.9c1.1,1,2.2,2.1,3.3,3.2c9,9,15.3,19.4,18.8,31.4l5.5,3.1c-3.4-14.5-10.5-27-21.1-37.7C135.2,22.1,133.8,20.8,132.3,19.5z"/>
			<path fill="#FF0100" d="M158,62.4l-5.4-3.1c1.8,6.5,2.8,13.4,2.9,20.7c-0.1,6-0.8,11.7-2,17.1l3.2,5.6c2-7.1,3.1-14.7,3.3-22.7C159.9,73.8,159.2,68,158,62.4z"/>
			<path fill="#FF0100" d="M156.3,104l-3.1-5.5c-3.4,13.4-9.9,25-19.8,34.9c-4,4-8.3,7.4-12.9,10.4v5.2c5.8-3.4,11.1-7.5,16.1-12.5C146,127.2,152.6,116.3,156.3,104z"/>
			<path fill="#FF0100" d="M119.5,149.6v-5.2c-11.4,7-24.6,10.7-39.5,11.1c-7.3-0.2-14.2-1.2-20.7-3l3.1,5.4c5.6,1.2,11.5,1.9,17.6,2.1C94.8,159.6,108,156.2,119.5,149.6z"/>
			<path fill="#FF0100" d="M6.5,63.1l-3.2-5.6C1.3,64.5,0.2,72,0,80c0.4,14.7,3.8,27.9,10.4,39.4h5.2C8.6,108,4.9,94.9,4.5,80C4.7,74.1,5.3,68.5,6.5,63.1z"/>
			<path fill="#FF0100" d="M16.2,120.4H11c3.3,5.8,7.5,11.2,12.5,16.1c4.9,5,10.2,9.1,16,12.5l-0.1-5.3c-4.5-2.9-8.8-6.3-12.8-10.3C22.6,129.3,19.1,125,16.2,120.4z"/>
			<path fill="#FF0100" d="M40.4,144.4l0.1,5.2c6.3,3.6,13.2,6.3,20.6,8l-3.2-5.5C51.7,150.3,45.9,147.7,40.4,144.4z"/>
		</g>

		<g id="centersign" transform="translate(0,0) scale(1,1)">
			<g id="signstar" display="inline">
				<polygon fill="#FF0100" points="79.5,58.5 84.633,73.722 100.563,73.722 87.818,83.277 92.42,98.5 79.5,89.475 66.58,98.5 71.182,83.277 58.438,73.722 74.367,73.722"/>
			</g>
			<g id="signparty" display="none"><path fill="#FF0100" d="M80.448,58.475c10.11,3.89,16.197,16.188,10.938,26.069L78.592,71.51l4.953-4.941l-3.097-3.153c-1.651,1.683-4.333,1.999-6.19,1.261l-9.699,9.985l5.572,5.571l3.61-3.784l12.792,13.035c-6.292,3.574-14.958,2.418-21.354-4.311l-2.992,3.156c0.826,1.258,1.65,2.414,2.579,3.466c0,0.104-0.309,0.316-0.309,0.316c-0.207,0-0.413-0.105-0.517-0.105c-1.65,0-2.993,1.47-2.993,3.153c0,1.682,1.342,3.047,2.993,3.047s3.095-1.365,3.095-3.047c0-0.209-0.103-0.421-0.103-0.525l0.412-0.525c7.429,5.045,15.477,5.677,24.142,0.423l3.508,3.675l4.953-4.938l-3.612-3.682C106.654,73.717,92.831,58.054,80.448,58.475"/></g>
		</g>
	</g>
<g><g transform="rotate(-74.5,80,80)"><g transform="translate(72.2,8) scale(0.015234375000000001,0.02361328125)"><g transform="scale(1,-1) translate(0,-820)"><path d="M814 -98V-109Q814 -130 830 -140Q863 -156 896 -144Q921 -131 921 -105L922 472Q922 485 932 488Q954 495 955 511Q955 527 927 533Q872 543 821 548Q814 547 814 542Q815 536 815 531L814 -71H568V702Q568 712 575 713Q600 720 600 735Q600 745 579 754Q525 769 463 774Q456 775 456 770Q456 761 456 753V-71H212Q212 -64 212 -56V472Q212 482 227 489Q246 495 247 512Q247 527 212 533Q172 540 114 546Q107 547 107 541Q107 535 107 530V-32Q108 -45 98 -63L85 -89Q81 -95 90 -101Q127 -123 167 -144Q176 -150 182 -140L207 -98H814V-98V-97V-98Z" fill="#FF0100"/></g></g></g><g transform="rotate(-24.833333333333336,80,80)"><g transform="translate(72.2,8) scale(0.015234375000000001,0.02361328125)"><g transform="scale(1,-1) translate(0,-820)"><path d="M123 753Q151 731 169 694Q185 660 190 625Q193 597 211 580Q230 564 258 570Q286 574 296 605Q303 630 292 660Q277 694 239 725Q200 755 132 774Q122 778 119 770Q116 760 123 753V753V753ZM38 525Q63 501 80 465Q93 431 97 395Q98 368 116 350Q134 334 161 338Q191 342 201 371Q210 396 200 425Q187 459 151 492Q114 523 48 545Q38 549 34 542Q31 532 38 525V525V525ZM333 580L147 171Q143 161 126 161Q95 160 59 165Q46 166 44 160Q43 153 51 148Q115 132 135 94Q142 34 127 -36Q111 -115 141 -156Q159 -178 191 -175Q228 -171 243 -131Q264 -76 238 5Q225 45 223 97Q220 128 227 158L352 575Q355 584 352 589Q348 593 344 591Q338 590 333 580V580V580ZM769 658V-25Q769 -53 740 -51Q700 -52 644 -49Q637 -48 635 -56Q634 -65 643 -68Q683 -83 707 -106Q726 -128 728 -165Q728 -175 740 -174Q768 -174 804 -164Q847 -152 864 -122Q880 -97 880 -48V658H966V658Q979 658 983 665Q986 671 979 679V679Q939 733 880 768Q868 775 860 766Q829 732 803 694Q799 688 791 685Q787 685 784 685H413H405L344 692Q331 695 333 688Q337 669 343 652Q344 645 354 649L413 658H769V658ZM474 190H579V136Q578 117 586 106Q595 94 618 94Q652 97 669 107Q685 117 686 136V447Q686 460 696 465Q715 474 716 485Q716 495 704 504Q661 535 610 553Q603 556 599 552Q586 539 573 524Q569 517 562 517H471Q420 544 376 557Q366 560 366 554Q367 550 367 547V115Q366 96 374 88Q387 79 407 79Q435 80 457 93Q473 103 474 130V190V190ZM474 217V490H568Q575 493 579 484V217H474V217V218V217Z" fill="#FF0100"/></g></g></g><g transform="rotate(24.83333333333333,80,80)"><g transform="translate(72.2,8) scale(0.015234375000000001,0.02361328125)"><g transform="scale(1,-1) translate(0,-820)"><path d="M437 454Q436 432 434 409Q421 258 366 145Q314 37 219 -41Q128 -116 32 -154Q25 -157 25 -164Q26 -170 35 -168Q144 -153 260 -91Q386 -19 459 105Q516 219 536 371Q546 304 563 230Q587 133 626 60Q672 -28 731 -88Q786 -143 861 -177Q873 -181 876 -174Q889 -138 916 -113Q941 -91 974 -85Q984 -84 985 -75Q984 -68 974 -66Q899 -53 829 -9Q751 40 693 113Q638 183 599 272Q565 351 550 454H781H816H970V454Q983 454 987 461Q990 467 983 475V475Q941 530 880 567Q867 574 859 565Q828 528 800 491Q796 484 781 481H547Q557 599 557 728Q557 735 566 738Q588 745 588 758Q588 771 562 777Q507 786 453 788Q447 789 447 782Q447 752 447 734Q446 595 439 481H109H101L40 488Q27 491 29 484Q33 465 39 448Q40 441 50 445L109 454H437V454V455V454Z" fill="#FF0100"/></g></g></g><g transform="rotate(74.5,80,80)"><g transform="translate(72.2,8) scale(0.015234375000000001,0.02361328125)"><g transform="scale(1,-1) translate(0,-820)"><path d="M144 700Q174 678 194 643Q212 609 218 574Q222 546 242 529Q263 514 290 521Q320 528 328 559Q334 587 321 615Q305 649 264 678Q224 706 153 723Q143 727 139 717Q136 707 144 700V700V700ZM366 756Q399 725 420 680Q438 637 441 592Q444 558 466 535Q485 519 513 522Q543 525 555 555Q567 586 556 621Q543 666 500 706Q457 746 377 777Q367 781 362 773Q358 763 366 756V756V756ZM824 458Q806 403 777 345Q773 335 777 329Q780 326 794 329Q860 366 942 422Q949 426 957 425Q973 425 981 434Q985 444 974 456Q928 495 871 522Q862 526 854 523Q832 510 816 493Q810 489 800 485H665Q701 513 745 560Q800 621 835 682Q839 689 848 690Q866 691 868 701Q869 711 851 723Q796 753 739 769Q732 770 730 764Q729 754 725 740Q718 685 691 606Q669 542 635 485H217H203L166 488Q162 503 158 516Q155 523 150 523Q146 523 145 516Q135 468 119 446Q103 424 76 408Q49 393 42 363Q35 335 49 315Q67 296 94 294Q122 295 144 317Q169 351 173 406Q174 431 171 454L217 458H824V458ZM767 125H555V160Q555 169 563 171Q585 178 586 192Q586 198 583 201Q652 237 734 284Q741 287 749 285Q765 282 774 290Q780 300 771 313Q728 353 675 384Q668 390 659 386Q637 376 621 360Q615 356 611 353Q607 353 604 353H261H253L193 361Q181 365 183 356Q187 338 192 318Q193 314 206 318L261 326H622Q583 271 532 217Q489 224 452 226Q445 227 445 217Q444 208 445 201L444 125H129H121L60 132Q47 135 49 128Q53 109 59 92Q60 85 70 89L129 98H444V-42Q444 -52 436 -61Q429 -68 416 -67Q367 -66 314 -60Q305 -60 304 -70Q303 -79 314 -82Q363 -95 386 -123Q405 -145 407 -175Q408 -181 419 -181Q483 -180 519 -150Q555 -120 555 -82V98H767H802H942V98Q955 98 959 105Q962 111 955 119V119Q918 171 861 205Q849 212 841 203Q811 169 786 134Q782 128 774 125Q770 125 767 125V125V125V126V125Z" fill="#FF0100"/></g></g></g></g><g><g transform="rotate(40.07142857142857,80,80)"><g transform="translate(77.42142857142858,143.7) scale(0.010072544642857142,0.010072544642857142)"><g transform="scale(1,-1) translate(0,-820)"><path d="M438 332Q438 513 384 608Q335 695 242 695Q181 695 132 644Q68 571 67 468Q67 354 107 293Q156 224 224 224Q281 224 328 269Q335 276 343 285Q342 161 325 110Q309 53 287 23Q268 -7 247 -7Q222 -6 213 5Q206 15 206 37Q206 62 194 75Q184 88 160 89Q141 89 126 75Q113 62 112 37Q112 3 141 -24Q172 -55 233 -55Q291 -55 340 -2Q382 40 409 121Q437 200 438 332V332V332ZM343 355Q324 324 302 303Q268 272 244 271Q210 271 184 328Q162 382 161 468Q161 556 189 607Q214 647 242 648Q282 648 307 590Q341 509 343 355V355V355V356V355Z" fill="#FF0100"/></g></g></g><g transform="rotate(34.3469387755102,80,80)"><g transform="translate(77.42142857142858,143.7) scale(0.010072544642857142,0.010072544642857142)"><g transform="scale(1,-1) translate(0,-820)"><path d="M437 120Q437 204 403 262Q369 316 319 352Q371 392 390 430Q412 476 413 524Q413 591 369 644Q327 695 251 695Q187 695 140 648Q91 597 90 524Q90 440 119 390Q138 356 183 321Q119 270 96 227Q69 178 69 120Q69 57 119 3Q177 -54 260 -54Q326 -54 382 -2Q437 49 437 120V120V120ZM339 202Q361 168 362 120Q362 66 329 29Q298 -7 260 -7Q218 -7 192 27Q164 63 163 120Q163 169 187 225Q202 256 236 287Q311 244 339 202V202V202ZM191 620Q213 648 251 648Q276 648 298 614Q319 580 319 524Q319 475 302 432Q292 410 265 385Q208 422 186 453Q165 481 165 524Q165 584 191 620V620V620V621V620Z" fill="#FF0100"/></g></g></g><g transform="rotate(28.622448979591837,80,80)"><g transform="translate(77.42142857142858,143.7) scale(0.010072544642857142,0.010072544642857142)"><g transform="scale(1,-1) translate(0,-820)"><path d="M96 620V299H143Q152 327 178 347Q206 365 235 365Q278 365 309 320Q339 274 339 183Q339 84 309 39Q279 -7 235 -7Q198 -7 179 11Q163 27 162 49Q162 59 168 68Q175 80 176 93Q176 115 163 132Q150 148 126 149Q102 149 87 133Q74 117 73 93Q73 33 123 -12Q172 -54 235 -54Q311 -54 370 4Q433 68 433 183Q433 297 377 356Q323 411 235 412Q196 412 155 386Q148 382 143 377V620H380L401 695H143H96V620V620V621V620Z" fill="#FF0100"/></g></g></g><g transform="rotate(22.897959183673468,80,80)"><g transform="translate(77.42142857142858,143.7) scale(0.010072544642857142,0.010072544642857142)"><g transform="scale(1,-1) translate(0,-820)"><path d="M400 -42L437 142H390Q374 69 353 50Q332 34 306 33H145Q163 96 208 146Q305 260 358 322Q428 407 429 507Q429 589 380 643Q334 695 244 695Q172 695 122 636Q79 584 79 521Q79 487 97 464Q115 448 138 448Q156 448 175 464Q191 479 192 504Q192 525 179 545Q169 564 169 583Q169 595 183 616Q205 647 244 648Q277 648 301 620Q335 580 335 507Q335 395 273 317Q218 247 155 169Q85 79 84 -42H131H306H400V-42V-41V-42Z" fill="#FF0100"/></g></g></g><g transform="rotate(17.1734693877551,80,80)"><g transform="translate(77.42142857142858,143.7) scale(0.010072544642857142,0.010072544642857142)"><g transform="scale(1,-1) translate(0,-820)"><path d="M303 42V695H256Q189 634 106 621V574Q131 574 163 574Q185 574 197 565Q210 555 210 529V42Q210 18 191 11Q173 5 114 5V-42H399V5Q339 5 321 12Q303 18 303 42V42V42V43V42Z" fill="#FF0100"/></g></g></g><g transform="rotate(11.448979591836736,80,80)"><g transform="translate(77.42142857142858,143.7) scale(0.010072544642857142,0.010072544642857142)"><g transform="scale(1,-1) translate(0,-820)"><path d="M303 42V695H256Q189 634 106 621V574Q131 574 163 574Q185 574 197 565Q210 555 210 529V42Q210 18 191 11Q173 5 114 5V-42H399V5Q339 5 321 12Q303 18 303 42V42V42V43V42Z" fill="#FF0100"/></g></g></g><g transform="rotate(5.724489795918366,80,80)"><g transform="translate(77.42142857142858,143.7) scale(0.010072544642857142,0.010072544642857142)"><g transform="scale(1,-1) translate(0,-820)"><path d="M400 -42L437 142H390Q374 69 353 50Q332 34 306 33H145Q163 96 208 146Q305 260 358 322Q428 407 429 507Q429 589 380 643Q334 695 244 695Q172 695 122 636Q79 584 79 521Q79 487 97 464Q115 448 138 448Q156 448 175 464Q191 479 192 504Q192 525 179 545Q169 564 169 583Q169 595 183 616Q205 647 244 648Q277 648 301 620Q335 580 335 507Q335 395 273 317Q218 247 155 169Q85 79 84 -42H131H306H400V-42V-41V-42Z" fill="#FF0100"/></g></g></g><g transform="rotate(0,80,80)"><g transform="translate(77.42142857142858,143.7) scale(0.010072544642857142,0.010072544642857142)"><g transform="scale(1,-1) translate(0,-820)"><path d="M440 158Q440 273 364 321Q348 333 326 340Q347 353 364 374Q418 438 418 530Q418 600 374 647Q328 695 253 695Q189 695 138 652Q89 609 89 552Q89 530 102 515Q115 502 137 502Q153 502 167 516Q182 532 182 552Q182 565 174 577Q168 587 168 601Q168 616 189 631Q213 647 253 648Q284 648 305 615Q324 587 325 530Q325 452 296 404Q269 359 207 359Q194 360 182 353Q173 347 172 336Q173 326 182 319Q192 312 207 312Q271 312 306 279Q346 240 347 158Q347 67 311 27Q283 -7 245 -7Q197 -7 178 10Q159 26 158 46Q158 56 165 66Q172 76 172 88Q172 109 157 126Q144 142 124 142Q103 142 86 127Q70 112 69 88Q69 43 112 -2Q163 -54 245 -54Q327 -54 380 2Q440 63 440 158V158V158V159V158Z" fill="#FF0100"/></g></g></g><g transform="rotate(-5.724489795918366,80,80)"><g transform="translate(77.42142857142858,143.7) scale(0.010072544642857142,0.010072544642857142)"><g transform="scale(1,-1) translate(0,-820)"><path d="M440 158Q440 273 364 321Q348 333 326 340Q347 353 364 374Q418 438 418 530Q418 600 374 647Q328 695 253 695Q189 695 138 652Q89 609 89 552Q89 530 102 515Q115 502 137 502Q153 502 167 516Q182 532 182 552Q182 565 174 577Q168 587 168 601Q168 616 189 631Q213 647 253 648Q284 648 305 615Q324 587 325 530Q325 452 296 404Q269 359 207 359Q194 360 182 353Q173 347 172 336Q173 326 182 319Q192 312 207 312Q271 312 306 279Q346 240 347 158Q347 67 311 27Q283 -7 245 -7Q197 -7 178 10Q159 26 158 46Q158 56 165 66Q172 76 172 88Q172 109 157 126Q144 142 124 142Q103 142 86 127Q70 112 69 88Q69 43 112 -2Q163 -54 245 -54Q327 -54 380 2Q440 63 440 158V158V158V159V158Z" fill="#FF0100"/></g></g></g><g transform="rotate(-11.448979591836732,80,80)"><g transform="translate(77.42142857142858,143.7) scale(0.010072544642857142,0.010072544642857142)"><g transform="scale(1,-1) translate(0,-820)"><path d="M303 42V695H256Q189 634 106 621V574Q131 574 163 574Q185 574 197 565Q210 555 210 529V42Q210 18 191 11Q173 5 114 5V-42H399V5Q339 5 321 12Q303 18 303 42V42V42V43V42Z" fill="#FF0100"/></g></g></g><g transform="rotate(-17.173469387755098,80,80)"><g transform="translate(77.42142857142858,143.7) scale(0.010072544642857142,0.010072544642857142)"><g transform="scale(1,-1) translate(0,-820)"><path d="M400 -42L437 142H390Q374 69 353 50Q332 34 306 33H145Q163 96 208 146Q305 260 358 322Q428 407 429 507Q429 589 380 643Q334 695 244 695Q172 695 122 636Q79 584 79 521Q79 487 97 464Q115 448 138 448Q156 448 175 464Q191 479 192 504Q192 525 179 545Q169 564 169 583Q169 595 183 616Q205 647 244 648Q277 648 301 620Q335 580 335 507Q335 395 273 317Q218 247 155 169Q85 79 84 -42H131H306H400V-42V-41V-42Z" fill="#FF0100"/></g></g></g><g transform="rotate(-22.897959183673464,80,80)"><g transform="translate(77.42142857142858,143.7) scale(0.010072544642857142,0.010072544642857142)"><g transform="scale(1,-1) translate(0,-820)"><path d="M440 158Q440 273 364 321Q348 333 326 340Q347 353 364 374Q418 438 418 530Q418 600 374 647Q328 695 253 695Q189 695 138 652Q89 609 89 552Q89 530 102 515Q115 502 137 502Q153 502 167 516Q182 532 182 552Q182 565 174 577Q168 587 168 601Q168 616 189 631Q213 647 253 648Q284 648 305 615Q324 587 325 530Q325 452 296 404Q269 359 207 359Q194 360 182 353Q173 347 172 336Q173 326 182 319Q192 312 207 312Q271 312 306 279Q346 240 347 158Q347 67 311 27Q283 -7 245 -7Q197 -7 178 10Q159 26 158 46Q158 56 165 66Q172 76 172 88Q172 109 157 126Q144 142 124 142Q103 142 86 127Q70 112 69 88Q69 43 112 -2Q163 -54 245 -54Q327 -54 380 2Q440 63 440 158V158V158V159V158Z" fill="#FF0100"/></g></g></g><g transform="rotate(-28.622448979591837,80,80)"><g transform="translate(77.42142857142858,143.7) scale(0.010072544642857142,0.010072544642857142)"><g transform="scale(1,-1) translate(0,-820)"><path d="M438 332Q438 513 384 608Q335 695 242 695Q181 695 132 644Q68 571 67 468Q67 354 107 293Q156 224 224 224Q281 224 328 269Q335 276 343 285Q342 161 325 110Q309 53 287 23Q268 -7 247 -7Q222 -6 213 5Q206 15 206 37Q206 62 194 75Q184 88 160 89Q141 89 126 75Q113 62 112 37Q112 3 141 -24Q172 -55 233 -55Q291 -55 340 -2Q382 40 409 121Q437 200 438 332V332V332ZM343 355Q324 324 302 303Q268 272 244 271Q210 271 184 328Q162 382 161 468Q161 556 189 607Q214 647 242 648Q282 648 307 590Q341 509 343 355V355V355V356V355Z" fill="#FF0100"/></g></g></g><g transform="rotate(-34.346938775510196,80,80)"><g transform="translate(77.42142857142858,143.7) scale(0.010072544642857142,0.010072544642857142)"><g transform="scale(1,-1) translate(0,-820)"><path d="M437 120Q437 204 403 262Q369 316 319 352Q371 392 390 430Q412 476 413 524Q413 591 369 644Q327 695 251 695Q187 695 140 648Q91 597 90 524Q90 440 119 390Q138 356 183 321Q119 270 96 227Q69 178 69 120Q69 57 119 3Q177 -54 260 -54Q326 -54 382 -2Q437 49 437 120V120V120ZM339 202Q361 168 362 120Q362 66 329 29Q298 -7 260 -7Q218 -7 192 27Q164 63 163 120Q163 169 187 225Q202 256 236 287Q311 244 339 202V202V202ZM191 620Q213 648 251 648Q276 648 298 614Q319 580 319 524Q319 475 302 432Q292 410 265 385Q208 422 186 453Q165 481 165 524Q165 584 191 620V620V620V621V620Z" fill="#FF0100"/></g></g></g><g transform="rotate(-40.07142857142857,80,80)"><g transform="translate(77.42142857142858,143.7) scale(0.010072544642857142,0.010072544642857142)"><g transform="scale(1,-1) translate(0,-820)"><path d="M429 695H106L69 479H116Q134 567 153 594Q172 619 206 620H375Q233 379 197 255Q157 114 156 16Q156 -15 168 -36Q181 -54 203 -54Q227 -54 237 -37Q250 -16 250 16Q250 170 297 331Q333 446 439 648L429 695V695V696V695Z" fill="#FF0100"/></g></g></g></g></g>
</svg>